[center]
[img]http://shareimage.org/images/zz5cq4owgjh0fdn0i45.jpg[/img]


In Time 2011 TS XviD V2 READNFO - MiSTERE
 
http://www.imdb.com/title/tt1637688/

Video
ID : 0
Format : MPEG-4 Visual
Format profile : Advanced Simple@L5
Format settings, BVOP : 2
Format settings, QPel : No
Format settings, GMC : No warppoints
Format settings, Matrix : Custom
Codec ID : XVID
Codec ID/Hint : XviD
Duration : 1h 41mn
Bit rate : 1 789 Kbps
Width : 720 pixels
Height : 304 pixels
Display aspect ratio : 2.35:1
Frame rate : 25.000 fps
Color space : YUV
Chroma subsampling : 4:2:0
Bit depth : 8 bits
Scan type : Progressive
Compression mode : Lossy
Bits/(Pixel*Frame) : 0.327
Stream size : 1.27 GiB (93%)
Writing library : XviD 58

Audio
ID : 1
Format : MPEG Audio
Format version : Version 1
Format profile : Layer 3
Mode : Joint stereo
Mode extension : MS Stereo
Codec ID : 55
Codec ID/Hint : MP3
Duration : 1h 41mn
Bit rate mode : Constant
Bit rate : 128 Kbps
Channel(s) : 2 channels
Sampling rate : 44.1 KHz
Compression mode : Lossy
Stream size : 93.2 MiB (7%)
Alignment : Split accross interleaves
Interleave, duration : 40 ms (1.00 video frame)

Thanks to RELiZLABS for the source files
Sharpened Resized and tweaked RGB
Video missing a few seconds here and there
but nothing important
New, much better LiNE than V1
take it or leave it

[img]http://shareimage.org/images/xab687i7f0a33q3afp9.png[/img]

[img]http://shareimage.org/images/t5v0ntf8lesqhwsoex9.png[/img]

[img]http://shareimage.org/images/n7b9w4lj472sdx16an5f.png[/img]
[/center]